<?xml version="1.0" encoding="utf-8"?>
<!-- Generator: Adobe Illustrator 15.0.0, SVG Export Plug-In . SVG Version: 6.00 Build 0)  -->
<!DOCTYPE svg PUBLIC "-//W3C//DTD SVG 1.1//EN" "http://www.w3.org/Graphics/SVG/1.1/DTD/svg11.dtd">
<svg version="1.1" id="Layer_1" xmlns="http://www.w3.org/2000/svg" xmlns:xlink="http://www.w3.org/1999/xlink" x="0px" y="0px"
	 width="300px" height="420px" viewBox="0 0 300 420" enable-background="new 0 0 300 420" xml:space="preserve">
<line fill="none" stroke="#000000" x1="22.833" y1="165.738" x2="23.431" y2="210"/>
<line fill="none" stroke="#000000" x1="23.431" y1="194.448" x2="41.973" y2="192.055"/>
<line fill="none" stroke="#000000" x1="41.973" y1="210" x2="41.973" y2="169.327"/>
<line fill="none" stroke="#000000" x1="187.955" y1="165.738" x2="188.553" y2="210"/>
<line fill="none" stroke="#000000" x1="188.553" y1="194.448" x2="207.096" y2="192.055"/>
<line fill="none" stroke="#000000" x1="207.096" y1="210" x2="207.096" y2="169.327"/>
<line fill="none" stroke="#000000" x1="51.543" y1="210" x2="59.917" y2="165.738"/>
<line fill="none" stroke="#000000" x1="59.917" y1="165.738" x2="67.693" y2="210"/>
<line fill="none" stroke="#000000" x1="55.73" y1="199.233" x2="65.822" y2="199.351"/>
<line fill="none" stroke="#000000" x1="97.6" y1="165.738" x2="97.6" y2="210"/>
<line fill="none" stroke="#000000" x1="97.6" y1="185.476" x2="117.986" y2="166.498"/>
<line fill="none" stroke="#000000" x1="97.6" y1="185.476" x2="117.986" y2="210"/>
<line fill="none" stroke="#000000" x1="132.292" y1="210" x2="143.525" y2="166.498"/>
<line fill="none" stroke="#000000" x1="143.525" y1="166.498" x2="154.422" y2="210"/>
<line fill="none" stroke="#000000" x1="135.907" y1="193.252" x2="152.022" y2="193.252"/>
<line fill="none" stroke="#000000" x1="164.519" y1="166.498" x2="181.266" y2="166.498"/>
<line fill="none" stroke="#000000" x1="172.5" y1="167.087" x2="172.5" y2="210.873"/>
<line fill="none" stroke="#000000" x1="236.833" y1="166.498" x2="217.133" y2="166.498"/>
<line fill="none" stroke="#000000" x1="217.133" y1="166.498" x2="217.133" y2="208.498"/>
<line fill="none" stroke="#000000" x1="217.133" y1="208.498" x2="236.833" y2="208.498"/>
<line fill="none" stroke="#000000" x1="236.833" y1="208.498" x2="236.833" y2="166.498"/>
<line fill="none" stroke="#000000" x1="39.253" y1="104.165" x2="39.253" y2="142.834"/>
<line fill="none" stroke="#000000" x1="39.253" y1="104.165" x2="54.771" y2="104.165"/>
<line fill="none" stroke="#000000" x1="238.509" y1="104.165" x2="254.027" y2="104.165"/>
<line fill="none" stroke="#000000" x1="73.906" y1="104.165" x2="89.424" y2="104.165"/>
<line fill="none" stroke="#000000" x1="108.558" y1="104.165" x2="124.077" y2="104.165"/>
<line fill="none" stroke="#000000" x1="125.885" y1="104.165" x2="141.403" y2="104.165"/>
<line fill="none" stroke="#000000" x1="39.253" y1="119.683" x2="47.013" y2="119.683"/>
<line fill="none" stroke="#000000" x1="56.579" y1="104.165" x2="56.579" y2="142.834"/>
<line fill="none" stroke="#000000" x1="56.579" y1="142.834" x2="72.098" y2="142.834"/>
<line fill="none" stroke="#000000" x1="72.098" y1="104.165" x2="72.098" y2="142.834"/>
<line fill="none" stroke="#000000" x1="91.232" y1="104.165" x2="91.232" y2="142.834"/>
<line fill="none" stroke="#000000" x1="91.232" y1="142.834" x2="106.75" y2="142.834"/>
<line fill="none" stroke="#000000" x1="106.75" y1="104.165" x2="106.75" y2="142.834"/>
<line fill="none" stroke="#000000" x1="81.665" y1="104.165" x2="81.665" y2="142.834"/>
<line fill="none" stroke="#000000" x1="108.558" y1="104.165" x2="108.558" y2="142.834"/>
<line fill="none" stroke="#000000" x1="124.077" y1="104.165" x2="124.077" y2="119.683"/>
<line fill="none" stroke="#000000" x1="124.077" y1="119.683" x2="108.558" y2="119.683"/>
<line fill="none" stroke="#000000" x1="108.558" y1="119.683" x2="124.077" y2="142.834"/>
<line fill="none" stroke="#000000" x1="125.885" y1="104.165" x2="125.885" y2="142.834"/>
<line fill="none" stroke="#000000" x1="125.885" y1="142.834" x2="141.403" y2="142.834"/>
<line fill="none" stroke="#000000" x1="126.767" y1="119.683" x2="133.743" y2="119.683"/>
<line fill="none" stroke="#000000" x1="160.094" y1="104.165" x2="160.094" y2="142.834"/>
<line fill="none" stroke="#000000" x1="160.094" y1="142.834" x2="174.5" y2="142.834"/>
<line fill="none" stroke="#000000" x1="180.955" y1="104.165" x2="180.955" y2="142.834"/>
<line fill="none" stroke="#000000" x1="186.497" y1="104.165" x2="194.257" y2="142.834"/>
<line fill="none" stroke="#000000" x1="194.257" y1="142.834" x2="202.017" y2="104.165"/>
<line fill="none" stroke="#000000" x1="209.293" y1="104.165" x2="209.293" y2="142.834"/>
<line fill="none" stroke="#000000" x1="218.097" y1="104.165" x2="218.097" y2="142.834"/>
<line fill="none" stroke="#000000" x1="218.097" y1="104.165" x2="233.616" y2="142.834"/>
<line fill="none" stroke="#000000" x1="233.616" y1="142.834" x2="233.616" y2="104.165"/>
<line fill="none" stroke="#000000" x1="248.5" y1="166.722" x2="248.5" y2="208.055"/>
<line fill="none" stroke="#000000" x1="248.5" y1="166.722" x2="268.834" y2="208.055"/>
<line fill="none" stroke="#000000" x1="268.834" y1="208.055" x2="268.834" y2="166.722"/>
<line fill="none" stroke="#000000" x1="238.509" y1="104.165" x2="238.509" y2="142.834"/>
<line fill="none" stroke="#000000" x1="239.289" y1="142.834" x2="253.245" y2="142.834"/>
<line fill="none" stroke="#000000" x1="253.245" y1="142.834" x2="253.245" y2="125.28"/>
<line fill="none" stroke="#000000" x1="253.245" y1="125.28" x2="246.268" y2="125.28"/>
<line fill="none" stroke="#000000" x1="84.167" y1="167.087" x2="75.167" y2="171.498"/>
<line fill="none" stroke="#000000" x1="75.167" y1="171.498" x2="75.167" y2="203.498"/>
<line fill="none" stroke="#000000" x1="75.167" y1="203.498" x2="84.167" y2="208.498"/>
</svg>
