<?xml version="1.0" encoding="utf-8"?>
<!-- Generator: Adobe Illustrator 15.0.0, SVG Export Plug-In . SVG Version: 6.00 Build 0)  -->
<!DOCTYPE svg PUBLIC "-//W3C//DTD SVG 1.1//EN" "http://www.w3.org/Graphics/SVG/1.1/DTD/svg11.dtd">
<svg version="1.1" id="Layer_1" xmlns="http://www.w3.org/2000/svg" xmlns:xlink="http://www.w3.org/1999/xlink" x="0px" y="0px"
	 width="300px" height="420px" viewBox="0 0 300 420" enable-background="new 0 0 300 420" xml:space="preserve">
<line fill="none" stroke="#000000" x1="63" y1="217" x2="63" y2="219"/>
<line fill="none" stroke="#000000" x1="63.917" y1="217.738" x2="71.693" y2="262"/>
<line fill="none" stroke="#000000" x1="59.73" y1="251.233" x2="69.822" y2="251.351"/>
<line fill="none" stroke="#000000" x1="101.6" y1="217.738" x2="101.6" y2="262"/>
<line fill="none" stroke="#000000" x1="101.6" y1="237.476" x2="121.986" y2="218.498"/>
<line fill="none" stroke="#000000" x1="101.6" y1="237.476" x2="121.986" y2="262"/>
<line fill="none" stroke="#000000" x1="136.292" y1="262" x2="147.525" y2="218.498"/>
<line fill="none" stroke="#000000" x1="147.525" y1="218.498" x2="158.422" y2="262"/>
<line fill="none" stroke="#000000" x1="139.907" y1="245.252" x2="156.022" y2="245.252"/>
<line fill="none" stroke="#000000" x1="168.519" y1="218.498" x2="185.266" y2="218.498"/>
<line fill="none" stroke="#000000" x1="176.5" y1="219.087" x2="176.5" y2="262.873"/>
<line fill="none" stroke="#000000" x1="240.833" y1="218.498" x2="221.133" y2="218.498"/>
<line fill="none" stroke="#000000" x1="221.133" y1="218.498" x2="221.133" y2="260.498"/>
<line fill="none" stroke="#000000" x1="221.133" y1="260.498" x2="240.833" y2="260.498"/>
<line fill="none" stroke="#000000" x1="240.833" y1="260.498" x2="240.833" y2="218.498"/>
<line fill="none" stroke="#000000" x1="43.253" y1="156.165" x2="43.253" y2="194.834"/>
<line fill="none" stroke="#000000" x1="43.253" y1="156.165" x2="58.771" y2="156.165"/>
<line fill="none" stroke="#000000" x1="242.509" y1="156.165" x2="258.027" y2="156.165"/>
<line fill="none" stroke="#000000" x1="77.906" y1="156.165" x2="93.424" y2="156.165"/>
<line fill="none" stroke="#000000" x1="114.227" y1="156.165" x2="129.746" y2="156.165"/>
<line fill="none" stroke="#000000" x1="132.148" y1="156.165" x2="147.667" y2="156.165"/>
<line fill="none" stroke="#000000" x1="43.253" y1="171.683" x2="51.013" y2="171.683"/>
<line fill="none" stroke="#000000" x1="60.579" y1="156.165" x2="60.579" y2="194.834"/>
<line fill="none" stroke="#000000" x1="60.579" y1="194.834" x2="76.098" y2="194.834"/>
<line fill="none" stroke="#000000" x1="76.098" y1="156.165" x2="76.098" y2="194.834"/>
<line fill="none" stroke="#000000" x1="96.232" y1="156.165" x2="96.232" y2="194.834"/>
<line fill="none" stroke="#000000" x1="96.232" y1="194.834" x2="111.75" y2="194.834"/>
<line fill="none" stroke="#000000" x1="111.75" y1="156.165" x2="111.75" y2="194.834"/>
<line fill="none" stroke="#000000" x1="85.665" y1="156.165" x2="85.665" y2="194.834"/>
<line fill="none" stroke="#000000" x1="114.227" y1="156.165" x2="114.227" y2="194.834"/>
<line fill="none" stroke="#000000" x1="129.746" y1="156.165" x2="129.746" y2="171.683"/>
<line fill="none" stroke="#000000" x1="129.746" y1="171.683" x2="114.227" y2="171.683"/>
<line fill="none" stroke="#000000" x1="114.227" y1="171.683" x2="129.746" y2="194.834"/>
<line fill="none" stroke="#000000" x1="132.148" y1="156.165" x2="132.148" y2="194.834"/>
<line fill="none" stroke="#000000" x1="132.148" y1="194.834" x2="147.667" y2="194.834"/>
<line fill="none" stroke="#000000" x1="132.148" y1="171.683" x2="140.006" y2="171.683"/>
<line fill="none" stroke="#000000" x1="164.094" y1="156.165" x2="164.094" y2="194.834"/>
<line fill="none" stroke="#000000" x1="164.094" y1="194.834" x2="178.5" y2="194.834"/>
<line fill="none" stroke="#000000" x1="184.955" y1="156.165" x2="184.955" y2="194.834"/>
<line fill="none" stroke="#000000" x1="190.497" y1="156.165" x2="198.257" y2="194.834"/>
<line fill="none" stroke="#000000" x1="198.257" y1="194.834" x2="206.017" y2="156.165"/>
<line fill="none" stroke="#000000" x1="213.293" y1="156.165" x2="213.293" y2="194.834"/>
<line fill="none" stroke="#000000" x1="222.097" y1="156.165" x2="222.097" y2="194.834"/>
<line fill="none" stroke="#000000" x1="222.097" y1="156.165" x2="237.616" y2="194.834"/>
<line fill="none" stroke="#000000" x1="237.616" y1="194.834" x2="237.616" y2="156.165"/>
<line fill="none" stroke="#000000" x1="252.5" y1="218.722" x2="252.5" y2="260.054"/>
<line fill="none" stroke="#000000" x1="252.5" y1="218.722" x2="272.834" y2="260.054"/>
<line fill="none" stroke="#000000" x1="272.834" y1="260.054" x2="272.834" y2="218.722"/>
<line fill="none" stroke="#000000" x1="242.509" y1="156.165" x2="242.509" y2="194.834"/>
<line fill="none" stroke="#000000" x1="243.289" y1="194.834" x2="257.245" y2="194.834"/>
<line fill="none" stroke="#000000" x1="257.245" y1="194.834" x2="257.245" y2="177.28"/>
<line fill="none" stroke="#000000" x1="257.245" y1="177.28" x2="250.268" y2="177.28"/>
<line fill="none" stroke="#000000" x1="88.167" y1="219.087" x2="79.167" y2="223.498"/>
<line fill="none" stroke="#000000" x1="79.167" y1="223.498" x2="79.167" y2="255.498"/>
<line fill="none" stroke="#000000" x1="79.167" y1="255.498" x2="88.167" y2="260.498"/>
<line fill="none" stroke="#000000" x1="45.5" y1="217.738" x2="45.5" y2="260.498"/>
<line fill="none" stroke="#000000" x1="45.5" y1="237.476" x2="30.167" y2="237.476"/>
<line fill="none" stroke="#000000" x1="30.167" y1="217.738" x2="30.167" y2="260.054"/>
<line fill="none" stroke="#000000" x1="213.293" y1="218.722" x2="213.293" y2="260.498"/>
<line fill="none" stroke="#000000" x1="213.293" y1="242.5" x2="196.167" y2="242.5"/>
<line fill="none" stroke="#000000" x1="196.167" y1="260.498" x2="196.167" y2="218.498"/>
<line fill="none" stroke="#000000" x1="37.833" y1="199.5" x2="150" y2="199.5"/>
<line fill="none" stroke="#000000" x1="164.094" y1="199.5" x2="260.167" y2="199.5"/>
<line fill="none" stroke="#000000" x1="63.917" y1="217.738" x2="58.771" y2="262.873"/>
</svg>
